<svg xmlns="http://www.w3.org/2000/svg" width="1400" height="2000" viewBox="0 0 1400 2000">
  <defs>
    <style>
      .title { font-family: Arial, sans-serif; font-size: 28px; font-weight: bold; fill: #1a1a1a; }
      .section-title { font-family: Arial, sans-serif; font-size: 18px; font-weight: bold; fill: #2c3e50; }
      .box { fill: #ecf0f1; stroke: #34495e; stroke-width: 2; rx: 5; }
      .frontend { fill: #3498db; stroke: #2980b9; stroke-width: 2; }
      .api { fill: #e74c3c; stroke: #c0392b; stroke-width: 2; }
      .database { fill: #27ae60; stroke: #229954; stroke-width: 2; }
      .external { fill: #f39c12; stroke: #e67e22; stroke-width: 2; }
      .lib { fill: #9b59b6; stroke: #8e44ad; stroke-width: 2; }
      .text { font-family: Arial, sans-serif; font-size: 12px; fill: #2c3e50; }
      .text-small { font-family: Arial, sans-serif; font-size: 10px; fill: #2c3e50; }
      .text-white { font-family: Arial, sans-serif; font-size: 12px; fill: white; font-weight: bold; }
      .arrow { stroke: #34495e; stroke-width: 2; fill: none; marker-end: url(#arrowhead); }
      .arrow-dashed { stroke: #7f8c8d; stroke-width: 1.5; fill: none; stroke-dasharray: 5,5; marker-end: url(#arrowhead); }
    </style>
    <marker id="arrowhead" markerWidth="10" markerHeight="10" refX="9" refY="3" orient="auto">
      <polygon points="0 0, 10 3, 0 6" fill="#34495e" />
    </marker>
  </defs>
  
  <!-- Title -->
  <text x="700" y="40" text-anchor="middle" class="title">INDICORE CHATBOT ARCHITECTURE</text>
  
  <!-- FRONTEND LAYER -->
  <rect x="50" y="80" width="1300" height="300" class="box" opacity="0.2"/>
  <text x="700" y="105" text-anchor="middle" class="section-title">FRONTEND LAYER (Next.js React Components)</text>
  
  <!-- Frontend Components -->
  <rect x="80" y="120" width="180" height="80" class="frontend" rx="5"/>
  <text x="170" y="145" text-anchor="middle" class="text-white">ChatInterface</text>
  <text x="170" y="160" text-anchor="middle" class="text-white" style="font-size: 10px;">Main Chat UI</text>
  <text x="170" y="175" text-anchor="middle" class="text-white" style="font-size: 10px;">Message Display</text>
  <text x="170" y="190" text-anchor="middle" class="text-white" style="font-size: 10px;">User Input</text>
  
  <rect x="280" y="120" width="180" height="80" class="frontend" rx="5"/>
  <text x="370" y="145" text-anchor="middle" class="text-white">ChatMessages</text>
  <text x="370" y="160" text-anchor="middle" class="text-white" style="font-size: 10px;">Message Rendering</text>
  <text x="370" y="175" text-anchor="middle" class="text-white" style="font-size: 10px;">Translation UI</text>
  
  <rect x="480" y="120" width="180" height="80" class="frontend" rx="5"/>
  <text x="570" y="145" text-anchor="middle" class="text-white">StreamingChat</text>
  <text x="570" y="160" text-anchor="middle" class="text-white" style="font-size: 10px;">Real-time Streaming</text>
  <text x="570" y="175" text-anchor="middle" class="text-white" style="font-size: 10px;">SSE Handler</text>
  
  <rect x="680" y="120" width="180" height="80" class="frontend" rx="5"/>
  <text x="770" y="145" text-anchor="middle" class="text-white">DocumentUpload</text>
  <text x="770" y="160" text-anchor="middle" class="text-white" style="font-size: 10px;">PDF/DOC Upload</text>
  <text x="770" y="175" text-anchor="middle" class="text-white" style="font-size: 10px;">File Processing</text>
  
  <rect x="880" y="120" width="180" height="80" class="frontend" rx="5"/>
  <text x="970" y="145" text-anchor="middle" class="text-white">EssayEnhancement</text>
  <text x="970" y="160" text-anchor="middle" class="text-white" style="font-size: 10px;">Essay Analysis</text>
  <text x="970" y="175" text-anchor="middle" class="text-white" style="font-size: 10px;">Improvement Tips</text>
  
  <rect x="1080" y="120" width="180" height="80" class="frontend" rx="5"/>
  <text x="1170" y="145" text-anchor="middle" class="text-white">MockEvaluation</text>
  <text x="1170" y="160" text-anchor="middle" class="text-white" style="font-size: 10px;">Answer Evaluation</text>
  <text x="1170" y="175" text-anchor="middle" class="text-white" style="font-size: 10px;">Score &amp; Feedback</text>
  
  <rect x="280" y="220" width="180" height="80" class="frontend" rx="5"/>
  <text x="370" y="245" text-anchor="middle" class="text-white">VocabularyBuilder</text>
  <text x="370" y="260" text-anchor="middle" class="text-white" style="font-size: 10px;">Word Learning</text>
  <text x="370" y="275" text-anchor="middle" class="text-white" style="font-size: 10px;">Flashcards</text>
  
  <rect x="480" y="220" width="180" height="80" class="frontend" rx="5"/>
  <text x="570" y="245" text-anchor="middle" class="text-white">VoiceDialog</text>
  <text x="570" y="260" text-anchor="middle" class="text-white" style="font-size: 10px;">Speech Input</text>
  <text x="570" y="275" text-anchor="middle" class="text-white" style="font-size: 10px;">Voice Commands</text>
  
  <rect x="680" y="220" width="180" height="80" class="frontend" rx="5"/>
  <text x="770" y="245" text-anchor="middle" class="text-white">SettingsPanel</text>
  <text x="770" y="260" text-anchor="middle" class="text-white" style="font-size: 10px;">User Preferences</text>
  <text x="770" y="275" text-anchor="middle" class="text-white" style="font-size: 10px;">Model Selection</text>
  
  <!-- API LAYER -->
  <rect x="50" y="420" width="1300" height="500" class="box" opacity="0.2"/>
  <text x="700" y="445" text-anchor="middle" class="section-title">API LAYER (Next.js API Routes)</text>
  
  <!-- Chat APIs -->
  <rect x="80" y="470" width="200" height="120" class="api" rx="5"/>
  <text x="180" y="495" text-anchor="middle" class="text-white">/api/ai/chat</text>
  <text x="180" y="510" text-anchor="middle" class="text-white" style="font-size: 10px;">Non-streaming Chat</text>
  <text x="180" y="525" text-anchor="middle" class="text-white" style="font-size: 9px;">• Response Cache</text>
  <text x="180" y="540" text-anchor="middle" class="text-white" style="font-size: 9px;">• Contextual Layers</text>
  <text x="180" y="555" text-anchor="middle" class="text-white" style="font-size: 9px;">• PYQ Detection</text>
  <text x="180" y="570" text-anchor="middle" class="text-white" style="font-size: 9px;">• Perplexity API</text>
  
  <rect x="300" y="470" width="200" height="120" class="api" rx="5"/>
  <text x="400" y="495" text-anchor="middle" class="text-white">/api/ai/chat-stream</text>
  <text x="400" y="510" text-anchor="middle" class="text-white" style="font-size: 10px;">Streaming Chat</text>
  <text x="400" y="525" text-anchor="middle" class="text-white" style="font-size: 9px;">• Server-Sent Events</text>
  <text x="400" y="540" text-anchor="middle" class="text-white" style="font-size: 9px;">• Real-time Response</text>
  <text x="400" y="555" text-anchor="middle" class="text-white" style="font-size: 9px;">• Conversation History</text>
  <text x="400" y="570" text-anchor="middle" class="text-white" style="font-size: 9px;">• PYQ Database Query</text>
  
  <rect x="520" y="470" width="200" height="120" class="api" rx="5"/>
  <text x="620" y="495" text-anchor="middle" class="text-white">/api/ai/translate</text>
  <text x="620" y="510" text-anchor="middle" class="text-white" style="font-size: 10px;">Translation Service</text>
  <text x="620" y="525" text-anchor="middle" class="text-white" style="font-size: 9px;">• Azure Translator</text>
  <text x="620" y="540" text-anchor="middle" class="text-white" style="font-size: 9px;">• AI Models (Gemini)</text>
  <text x="620" y="555" text-anchor="middle" class="text-white" style="font-size: 9px;">• Google Translate</text>
  <text x="620" y="570" text-anchor="middle" class="text-white" style="font-size: 9px;">• Translation Cache</text>
  
  <rect x="740" y="470" width="200" height="120" class="api" rx="5"/>
  <text x="840" y="495" text-anchor="middle" class="text-white">/api/ai/evaluate-exam</text>
  <text x="840" y="510" text-anchor="middle" class="text-white" style="font-size: 10px;">Answer Evaluation</text>
  <text x="840" y="525" text-anchor="middle" class="text-white" style="font-size: 9px;">• Score Calculation</text>
  <text x="840" y="540" text-anchor="middle" class="text-white" style="font-size: 9px;">• Feedback Generation</text>
  <text x="840" y="555" text-anchor="middle" class="text-white" style="font-size: 9px;">• Perplexity API</text>
  
  <rect x="960" y="470" width="200" height="120" class="api" rx="5"/>
  <text x="1060" y="495" text-anchor="middle" class="text-white">/api/ai/enhance-essay</text>
  <text x="1060" y="510" text-anchor="middle" class="text-white" style="font-size: 10px;">Essay Enhancement</text>
  <text x="1060" y="525" text-anchor="middle" class="text-white" style="font-size: 9px;">• Structure Analysis</text>
  <text x="1060" y="540" text-anchor="middle" class="text-white" style="font-size: 9px;">• Improvement Suggestions</text>
  <text x="1060" y="555" text-anchor="middle" class="text-white" style="font-size: 9px;">• Perplexity API</text>
  
  <rect x="1180" y="470" width="170" height="120" class="api" rx="5"/>
  <text x="1265" y="495" text-anchor="middle" class="text-white">/api/ai/speech</text>
  <text x="1265" y="510" text-anchor="middle" class="text-white" style="font-size: 10px;">Speech Processing</text>
  <text x="1265" y="525" text-anchor="middle" class="text-white" style="font-size: 9px;">• Text-to-Speech</text>
  <text x="1265" y="540" text-anchor="middle" class="text-white" style="font-size: 9px;">• Speech-to-Text</text>
  
  <!-- Chat Management APIs -->
  <rect x="80" y="610" width="200" height="100" class="api" rx="5"/>
  <text x="180" y="635" text-anchor="middle" class="text-white">/api/chat</text>
  <text x="180" y="650" text-anchor="middle" class="text-white" style="font-size: 10px;">Chat Management</text>
  <text x="180" y="665" text-anchor="middle" class="text-white" style="font-size: 9px;">• GET: List Chats</text>
  <text x="180" y="680" text-anchor="middle" class="text-white" style="font-size: 9px;">• POST: Create Chat</text>
  <text x="180" y="695" text-anchor="middle" class="text-white" style="font-size: 9px;">• Save Messages</text>
  
  <rect x="300" y="610" width="200" height="100" class="api" rx="5"/>
  <text x="400" y="635" text-anchor="middle" class="text-white">/api/chat/[id]</text>
  <text x="400" y="650" text-anchor="middle" class="text-white" style="font-size: 10px;">Chat Operations</text>
  <text x="400" y="665" text-anchor="middle" class="text-white" style="font-size: 9px;">• GET: Get Chat</text>
  <text x="400" y="680" text-anchor="middle" class="text-white" style="font-size: 9px;">• PUT: Update Chat</text>
  <text x="400" y="695" text-anchor="middle" class="text-white" style="font-size: 9px;">• DELETE: Delete Chat</text>
  
  <rect x="520" y="610" width="200" height="100" class="api" rx="5"/>
  <text x="620" y="635" text-anchor="middle" class="text-white">/api/pyq/search</text>
  <text x="620" y="650" text-anchor="middle" class="text-white" style="font-size: 10px;">PYQ Search</text>
  <text x="620" y="665" text-anchor="middle" class="text-white" style="font-size: 9px;">• Topic Search</text>
  <text x="620" y="680" text-anchor="middle" class="text-white" style="font-size: 9px;">• Year Filter</text>
  <text x="620" y="695" text-anchor="middle" class="text-white" style="font-size: 9px;">• Exam Filter</text>
  
  <rect x="740" y="610" width="200" height="100" class="api" rx="5"/>
  <text x="840" y="635" text-anchor="middle" class="text-white">/api/pyq/seed</text>
  <text x="840" y="650" text-anchor="middle" class="text-white" style="font-size: 10px;">PYQ Data Import</text>
  <text x="840" y="665" text-anchor="middle" class="text-white" style="font-size: 9px;">• Bulk Upload</text>
  <text x="840" y="680" text-anchor="middle" class="text-white" style="font-size: 9px;">• Data Validation</text>
  
  <rect x="960" y="610" width="200" height="100" class="api" rx="5"/>
  <text x="1060" y="635" text-anchor="middle" class="text-white">/api/auth/[...nextauth]</text>
  <text x="1060" y="650" text-anchor="middle" class="text-white" style="font-size: 10px;">Authentication</text>
  <text x="1060" y="665" text-anchor="middle" class="text-white" style="font-size: 9px;">• NextAuth.js</text>
  <text x="1060" y="680" text-anchor="middle" class="text-white" style="font-size: 9px;">• Session Management</text>
  
  <!-- LIBRARY LAYER -->
  <rect x="50" y="960" width="1300" height="200" class="box" opacity="0.2"/>
  <text x="700" y="985" text-anchor="middle" class="section-title">LIBRARY &amp; UTILITY LAYER</text>
  
  <rect x="80" y="1000" width="180" height="70" class="lib" rx="5"/>
  <text x="170" y="1025" text-anchor="middle" class="text-white">contextual-layer</text>
  <text x="170" y="1040" text-anchor="middle" class="text-white" style="font-size: 10px;">Pattern Matching</text>
  <text x="170" y="1055" text-anchor="middle" class="text-white" style="font-size: 10px;">Quick Responses</text>
  
  <rect x="280" y="1000" width="180" height="70" class="lib" rx="5"/>
  <text x="370" y="1025" text-anchor="middle" class="text-white">exam-knowledge</text>
  <text x="370" y="1040" text-anchor="middle" class="text-white" style="font-size: 10px;">Structured Data</text>
  <text x="370" y="1055" text-anchor="middle" class="text-white" style="font-size: 10px;">Articles, Cases, Schemes</text>
  
  <rect x="480" y="1000" width="180" height="70" class="lib" rx="5"/>
  <text x="570" y="1025" text-anchor="middle" class="text-white">translationUtils</text>
  <text x="570" y="1040" text-anchor="middle" class="text-white" style="font-size: 10px;">Text Sanitization</text>
  <text x="570" y="1055" text-anchor="middle" class="text-white" style="font-size: 10px;">Markdown Stripping</text>
  
  <rect x="680" y="1000" width="180" height="70" class="lib" rx="5"/>
  <text x="770" y="1025" text-anchor="middle" class="text-white">cache</text>
  <text x="770" y="1040" text-anchor="middle" class="text-white" style="font-size: 10px;">Response Caching</text>
  <text x="770" y="1055" text-anchor="middle" class="text-white" style="font-size: 10px;">TTL Management</text>
  
  <rect x="880" y="1000" width="180" height="70" class="lib" rx="5"/>
  <text x="970" y="1025" text-anchor="middle" class="text-white">mongodb</text>
  <text x="970" y="1040" text-anchor="middle" class="text-white" style="font-size: 10px;">Connection Pool</text>
  <text x="970" y="1055" text-anchor="middle" class="text-white" style="font-size: 10px;">Connection Cache</text>
  
  <rect x="1080" y="1000" width="180" height="70" class="lib" rx="5"/>
  <text x="1170" y="1025" text-anchor="middle" class="text-white">auth</text>
  <text x="1170" y="1040" text-anchor="middle" class="text-white" style="font-size: 10px;">NextAuth Config</text>
  <text x="1170" y="1055" text-anchor="middle" class="text-white" style="font-size: 10px;">Session Handler</text>
  
  <!-- DATABASE LAYER -->
  <rect x="50" y="1200" width="650" height="200" class="box" opacity="0.2"/>
  <text x="375" y="1225" text-anchor="middle" class="section-title">DATABASE LAYER (MongoDB)</text>
  
  <rect x="80" y="1250" width="180" height="80" class="database" rx="5"/>
  <text x="170" y="1275" text-anchor="middle" class="text-white">Chat Collection</text>
  <text x="170" y="1290" text-anchor="middle" class="text-white" style="font-size: 10px;">• Messages</text>
  <text x="170" y="1305" text-anchor="middle" class="text-white" style="font-size: 10px;">• Settings</text>
  <text x="170" y="1320" text-anchor="middle" class="text-white" style="font-size: 10px;">• Metadata</text>
  
  <rect x="280" y="1250" width="180" height="80" class="database" rx="5"/>
  <text x="370" y="1275" text-anchor="middle" class="text-white">PYQ Collection</text>
  <text x="370" y="1290" text-anchor="middle" class="text-white" style="font-size: 10px;">• Questions</text>
  <text x="370" y="1305" text-anchor="middle" class="text-white" style="font-size: 10px;">• Topic Tags</text>
  <text x="370" y="1320" text-anchor="middle" class="text-white" style="font-size: 10px;">• Year, Exam Code</text>
  
  <rect x="480" y="1250" width="180" height="80" class="database" rx="5"/>
  <text x="570" y="1275" text-anchor="middle" class="text-white">User Collection</text>
  <text x="570" y="1290" text-anchor="middle" class="text-white" style="font-size: 10px;">• User Profile</text>
  <text x="570" y="1305" text-anchor="middle" class="text-white" style="font-size: 10px;">• Preferences</text>
  <text x="570" y="1320" text-anchor="middle" class="text-white" style="font-size: 10px;">• Stats</text>
  
  <!-- EXTERNAL SERVICES -->
  <rect x="750" y="1200" width="600" height="200" class="box" opacity="0.2"/>
  <text x="1050" y="1225" text-anchor="middle" class="section-title">EXTERNAL SERVICES</text>
  
  <rect x="780" y="1250" width="180" height="80" class="external" rx="5"/>
  <text x="870" y="1275" text-anchor="middle" class="text-white">Perplexity AI</text>
  <text x="870" y="1290" text-anchor="middle" class="text-white" style="font-size: 10px;">• sonar-pro</text>
  <text x="870" y="1305" text-anchor="middle" class="text-white" style="font-size: 10px;">• sonar</text>
  <text x="870" y="1320" text-anchor="middle" class="text-white" style="font-size: 10px;">• Chat Completions</text>
  
  <rect x="980" y="1250" width="180" height="80" class="external" rx="5"/>
  <text x="1070" y="1275" text-anchor="middle" class="text-white">Azure Translator</text>
  <text x="1070" y="1290" text-anchor="middle" class="text-white" style="font-size: 10px;">• Multi-language</text>
  <text x="1070" y="1305" text-anchor="middle" class="text-white" style="font-size: 10px;">• 11 Languages</text>
  <text x="1070" y="1320" text-anchor="middle" class="text-white" style="font-size: 10px;">• Professional API</text>
  
  <rect x="1180" y="1250" width="150" height="80" class="external" rx="5"/>
  <text x="1255" y="1275" text-anchor="middle" class="text-white">Google Translate</text>
  <text x="1255" y="1290" text-anchor="middle" class="text-white" style="font-size: 10px;">• Fallback</text>
  <text x="1255" y="1305" text-anchor="middle" class="text-white" style="font-size: 10px;">• Free Service</text>
  
  <!-- DATA FLOW ARROWS -->
  <!-- Frontend to API -->
  <line x1="170" y1="200" x2="180" y2="470" class="arrow"/>
  <line x1="370" y1="200" x2="400" y2="470" class="arrow"/>
  <line x1="570" y1="200" x2="400" y2="470" class="arrow"/>
  <line x1="770" y1="200" x2="620" y2="470" class="arrow"/>
  <line x1="970" y1="200" x2="840" y2="470" class="arrow"/>
  <line x1="1170" y1="200" x2="840" y2="470" class="arrow"/>
  
  <!-- API to Library -->
  <line x1="180" y1="590" x2="170" y2="1000" class="arrow-dashed"/>
  <line x1="400" y1="590" x2="370" y2="1000" class="arrow-dashed"/>
  <line x1="620" y1="590" x2="570" y2="1000" class="arrow-dashed"/>
  
  <!-- API to Database -->
  <line x1="180" y1="590" x2="170" y2="1250" class="arrow"/>
  <line x1="400" y1="590" x2="370" y2="1250" class="arrow"/>
  <line x1="620" y1="590" x2="370" y2="1250" class="arrow"/>
  <line x1="180" y1="710" x2="570" y2="1250" class="arrow"/>
  <line x1="620" y1="710" x2="370" y2="1250" class="arrow"/>
  
  <!-- API to External -->
  <line x1="180" y1="590" x2="870" y2="1250" class="arrow"/>
  <line x1="400" y1="590" x2="870" y2="1250" class="arrow"/>
  <line x1="620" y1="590" x2="1070" y2="1250" class="arrow"/>
  <line x1="620" y1="590" x2="1255" y2="1250" class="arrow-dashed"/>
  
  <!-- Library to Database -->
  <line x1="970" y1="1070" x2="170" y2="1250" class="arrow-dashed"/>
  
  <!-- LEGEND -->
  <rect x="50" y="1450" width="1300" height="500" class="box" opacity="0.1"/>
  <text x="700" y="1480" text-anchor="middle" class="section-title">ARCHITECTURE DETAILS</text>
  
  <!-- Flow Explanation -->
  <text x="80" y="1510" class="text" font-weight="bold">REQUEST FLOW:</text>
  <text x="80" y="1530" class="text-small">1. User sends message → Frontend Components (ChatInterface, ChatMessages)</text>
  <text x="80" y="1550" class="text-small">2. Frontend → API Routes (/api/ai/chat or /api/ai/chat-stream)</text>
  <text x="80" y="1570" class="text-small">3. API checks Response Cache (if cached, return immediately)</text>
  <text x="80" y="1590" class="text-small">4. API loads Conversation History from MongoDB (last 5 messages)</text>
  <text x="80" y="1610" class="text-small">5. API checks if PYQ query → Queries PYQ Database directly</text>
  <text x="80" y="1630" class="text-small">6. API generates Contextual Prompts (contextual-layer, exam-knowledge)</text>
  <text x="80" y="1650" class="text-small">7. API calls Perplexity AI (sonar-pro model) with optimized system prompt</text>
  <text x="80" y="1670" class="text-small">8. Response streams back (SSE) or returns JSON</text>
  <text x="80" y="1690" class="text-small">9. Response cached for 10 minutes</text>
  <text x="80" y="1710" class="text-small">10. Message saved to Chat Collection in MongoDB</text>
  
  <text x="700" y="1510" class="text" font-weight="bold">TRANSLATION FLOW:</text>
  <text x="700" y="1530" class="text-small">1. User clicks "Translate to..." → Frontend calls /api/ai/translate</text>
  <text x="700" y="1550" class="text-small">2. API checks Translation Cache first</text>
  <text x="700" y="1570" class="text-small">3. Priority: Azure Translator → AI Models → Google Translate → Free Services</text>
  <text x="700" y="1590" class="text-small">4. Response cached and returned to frontend</text>
  
  <text x="80" y="1750" class="text" font-weight="bold">OPTIMIZATION FEATURES:</text>
  <text x="80" y="1770" class="text-small">• Response Caching (10 min TTL) - Reduces API calls by ~70%</text>
  <text x="80" y="1790" class="text-small">• Optimized System Prompt (90% reduction from 4000 to 50 tokens)</text>
  <text x="80" y="1810" class="text-small">• Limited Conversation History (5 messages instead of 10)</text>
  <text x="80" y="1830" class="text-small">• Conditional Contextual Layers (only when needed)</text>
  <text x="80" y="1850" class="text-small">• PYQ Query Limits (max 50 items instead of 500)</text>
  <text x="80" y="1870" class="text-small">• Reduced max_tokens (6000 instead of 16000)</text>
  <text x="80" y="1890" class="text-small">• Single API Call (removed double parallel calls)</text>
  
  <text x="700" y="1750" class="text" font-weight="bold">DATA MODELS:</text>
  <text x="700" y="1770" class="text-small">• Chat: {_id, userEmail, name, messages[], settings, lastMessageAt, createdAt}</text>
  <text x="700" y="1790" class="text-small">• PYQ: {exam, level, paper, year, question, topicTags[], sourceLink, verified}</text>
  <text x="700" y="1810" class="text-small">• User: {email, name, memory: {totalQuestions, sessionQuestions}, preferences}</text>
  
  <text x="700" y="1850" class="text" font-weight="bold">SUPPORTED LANGUAGES:</text>
  <text x="700" y="1870" class="text-small">English, Hindi, Marathi, Tamil, Bengali, Punjabi, Gujarati, Telugu, Malayalam, Kannada, Spanish</text>
  
  <!-- Footer -->
  <text x="700" y="1940" text-anchor="middle" class="text" style="font-size: 14px; fill: #7f8c8d;">INDICORE - AI-Powered Exam Preparation Assistant</text>
  <text x="700" y="1960" text-anchor="middle" class="text-small" style="fill: #95a5a6;">Architecture Diagram | Generated: 2024</text>
</svg>

